<?xml version="1.0" encoding="iso-8859-1"?>
<!-- Generator: Adobe Illustrator 19.0.0, SVG Export Plug-In . SVG Version: 6.00 Build 0)  -->
<svg version="1.1" id="Capa_1" xmlns="http://www.w3.org/2000/svg" xmlns:xlink="http://www.w3.org/1999/xlink" x="0px" y="0px"
	 viewBox="0 0 512.001 512.001" style="enable-background:new 0 0 512.001 512.001;" xml:space="preserve">
<g>
	<g>
		<path d="M456.403,40.081H55.597C24.94,40.081,0,65.021,0,95.677v320.646c0,30.656,24.94,55.597,55.597,55.597h400.807
			c30.656,0,55.597-24.94,55.597-55.597V95.677C512,65.021,487.06,40.081,456.403,40.081z M497.001,416.323L497.001,416.323
			c-0.001,22.385-18.212,40.597-40.598,40.597H55.597C33.211,456.919,15,438.708,15,416.323V95.677
			C15,73.292,33.211,55.08,55.597,55.08h400.807c22.385,0,40.597,18.211,40.597,40.597V416.323z"/>
	</g>
</g>
<g>
	<g>
		<path d="M376.241,112.226H87.661c-8.556,0-15.516,6.96-15.516,15.516v256.517c0,8.556,6.96,15.516,15.516,15.516h16.034
			c4.142,0,7.5-3.358,7.5-7.5c0-4.142-3.358-7.501-7.5-7.501H87.661c-0.285,0-0.516-0.231-0.516-0.516V127.742
			c0-0.285,0.231-0.516,0.516-0.516h288.58c4.142,0,7.5-3.358,7.5-7.5C383.741,115.584,380.383,112.226,376.241,112.226z"/>
	</g>
</g>
<g>
	<g>
		<path d="M424.339,112.226h-16.034c-4.142,0-7.5,3.358-7.5,7.5c0,4.142,3.358,7.5,7.5,7.5h16.034c0.285,0,0.516,0.231,0.516,0.516
			v256.517c0,0.285-0.231,0.516-0.516,0.516h-288.58c-4.142,0-7.5,3.358-7.5,7.5c0,4.142,3.358,7.5,7.5,7.5h288.58
			c8.556,0,15.516-6.96,15.516-15.516V127.742C439.855,119.186,432.895,112.226,424.339,112.226z"/>
	</g>
</g>
<g>
	<g>
		<path d="M256,168.339c-48.336,0-87.661,39.325-87.661,87.661s39.325,87.661,87.661,87.661s87.661-39.325,87.661-87.661
			S304.336,168.339,256,168.339z M256,328.661c-40.065,0-72.661-32.596-72.661-72.661s32.596-72.661,72.661-72.661
			s72.661,32.596,72.661,72.661S296.065,328.661,256,328.661z"/>
	</g>
</g>
<g>
	<g>
		<path d="M256,200.403c-4.142,0-7.5,3.358-7.5,7.5v16.032c0,4.142,3.358,7.5,7.5,7.5c4.142,0,7.5-3.358,7.5-7.5v-16.032
			C263.5,203.761,260.142,200.403,256,200.403z"/>
	</g>
</g>
<g>
</g>
<g>
</g>
<g>
</g>
<g>
</g>
<g>
</g>
<g>
</g>
<g>
</g>
<g>
</g>
<g>
</g>
<g>
</g>
<g>
</g>
<g>
</g>
<g>
</g>
<g>
</g>
<g>
</g>
</svg>
