<?xml version="1.0" encoding="iso-8859-1"?>
<!-- Generator: Adobe Illustrator 19.0.0, SVG Export Plug-In . SVG Version: 6.00 Build 0)  -->
<svg version="1.1" id="Capa_1" xmlns="http://www.w3.org/2000/svg" xmlns:xlink="http://www.w3.org/1999/xlink" x="0px" y="0px"
	 viewBox="0 0 511.999 511.999" style="enable-background:new 0 0 511.999 511.999;" xml:space="preserve">
<g>
	<g>
		<path d="M308.802,53.329c-5.888,0-10.666,4.778-10.666,10.666s4.778,10.666,10.666,10.666s10.666-4.778,10.666-10.666
			S314.689,53.329,308.802,53.329z"/>
	</g>
</g>
<g>
	<g>
		<path d="M268.337,43.253c-4.221-0.391-8.549-0.59-12.864-0.59c-18.686,0-36.833,3.671-53.936,10.912
			c-5.425,2.296-7.96,8.556-5.664,13.981c2.281,5.386,8.516,7.975,13.981,5.664c14.457-6.121,29.806-9.225,45.619-9.225
			c3.662,0,7.328,0.167,10.898,0.498c5.854,0.543,11.06-3.77,11.603-9.637C278.517,48.991,274.203,43.796,268.337,43.253z"/>
	</g>
</g>
<g>
	<g>
		<path d="M340.799,85.326c-29.905,0-53.329,37.481-53.329,85.326c0,47.846,23.425,85.326,53.329,85.326
			c29.905,0,53.329-37.481,53.329-85.326C394.128,122.807,370.704,85.326,340.799,85.326z M340.799,234.647
			c-15.134,0-31.997-26.283-31.997-63.995c0-37.712,16.864-63.995,31.997-63.995s31.997,26.283,31.997,63.995
			C372.796,208.365,355.933,234.647,340.799,234.647z"/>
	</g>
</g>
<g>
	<g>
		<path d="M170.146,85.326c-29.905,0-53.329,37.481-53.329,85.326c0,47.846,23.425,85.326,53.329,85.326
			c29.905,0,53.329-37.481,53.329-85.326C223.475,122.807,200.051,85.326,170.146,85.326z M170.146,234.647
			c-15.134,0-31.997-26.283-31.997-63.995c0-37.712,16.864-63.995,31.997-63.995s31.997,26.283,31.997,63.995
			C202.144,208.365,185.28,234.647,170.146,234.647z"/>
	</g>
</g>
<g>
	<g>
		<path d="M496.956,401.571c-0.235-0.289-0.484-0.57-0.753-0.838l-45.255-45.255c-4.984-4.982-14.416-8.858-31.689-1.515
			l-34.801-34.794c11.188-15.125,12.402-16.461,16.702-22.745l8.596,8.596c12.475,12.474,32.772,12.475,45.246,0
			c12.474-12.475,12.474-32.773,0.001-45.245l-25.269-25.279c4.685-17.334,7.06-35.189,7.06-53.18
			c0-15.277-1.903-30.412-5.658-45.086l23.867-23.866c12.502-12.505,12.506-32.741,0-45.247
			c-12.477-12.473-32.773-12.473-45.249,0.002l-7.61,7.61C368.335,28.257,314.667,0,255.473,0
			c-59.115,0-112.82,28.199-146.67,74.728l-7.609-7.609c-12.475-12.475-32.773-12.473-45.246,0
			c-12.503,12.504-12.507,32.74,0,45.247l23.866,23.866c-3.756,14.674-5.659,29.81-5.659,45.087c0,17.922,2.487,35.671,7.385,52.855
			l-25.593,25.601c-12.474,12.475-12.474,32.773,0,45.247c12.474,12.473,32.771,12.475,45.245,0l10.009-10.009
			c1.711,2.351,3.459,4.672,5.265,6.931l12.576,15.72l-36.308,36.3c-17.269-7.341-26.699-3.465-31.677,1.515L15.8,400.735
			c-0.268,0.268-0.517,0.547-0.751,0.835c-14.174,15.953,5.094,48.753,30.916,74.587c17.775,17.768,55.874,47.546,74.588,30.908
			c0.286-0.232,0.564-0.48,0.83-0.747l45.256-45.256c4.981-4.981,8.855-14.411,1.513-31.678l14.671-14.676
			c18.112,21.017,44.438,33.255,72.65,33.255c28.505,0,55.023-12.447,73.138-33.816l15.237,15.237
			c-7.341,17.266-3.466,26.695,1.515,31.676l45.231,45.241c0.004,0.004,0.009,0.01,0.014,0.014
			c18.241,18.237,56.899-11.641,75.422-30.164C491.849,450.32,511.12,417.521,496.956,401.571z M439.915,274.858
			c4.158,4.158,4.158,10.922,0.001,15.079c-4.158,4.156-10.923,4.159-15.079,0l-12.278-12.278
			c3.575-6.664,6.787-13.534,9.603-20.561L439.915,274.858z M424.837,82.203c4.156-4.159,10.921-4.159,15.079-0.001
			c4.168,4.169,4.167,10.911,0,15.079l-16.243,16.243c-2.821-6.994-6.091-13.799-9.768-20.39L424.837,82.203z M71.032,97.281
			c-4.168-4.167-4.169-10.91-0.001-15.079c4.156-4.156,10.922-4.159,15.079,0l10.932,10.932c-3.678,6.591-6.948,13.397-9.768,20.39
			L71.032,97.281z M86.11,289.937c-4.156,4.156-10.921,4.159-15.078,0c-4.157-4.156-4.157-10.922,0.001-15.08l18.371-18.377
			c2.926,6.923,6.261,13.664,9.97,20.195L86.11,289.937z M103.75,233.936c-5.483-17.017-8.264-34.72-8.264-52.617
			c0-87.873,71.043-159.987,159.987-159.987c88.918,0,159.987,72.121,159.987,159.987c0,40.287-13.269,78.263-36.095,108.962
			l-30.224,40.615c-9.697-43.273-48.285-74.916-93.668-74.916c-43.882,0-81.045,29.43-92.424,70.045
			C134.361,289.706,116.097,272.305,103.75,233.936z M311.037,302.109l-18.033,12.022c-9.896-9.83-23.31-15.49-37.532-15.49
			c-14.223,0-27.638,5.661-37.533,15.489l-18.032-12.021c14.07-15.683,34.166-24.799,55.564-24.799S296.968,286.426,311.037,302.109
			z M61.049,461.072c-20.842-20.852-28.726-38.243-29.48-44.57c6.33,0.752,23.725,8.634,44.568,29.479
			c20.844,20.843,28.726,38.238,29.479,44.567C99.288,489.794,81.897,481.91,61.049,461.072z M122.897,474.636
			c-6.645-15.645-19.753-31.817-31.675-43.739c-13.796-13.796-29.585-25.719-43.735-31.681l28.001-28
			c3.972-0.212,10.943,3.245,14.484,5.094c9.869,5.351,21.021,14.014,31.421,24.415c17.482,17.481,24.501,31.556,24.43,31.449
			c1.862,3.443,5.271,10.556,5.079,14.457L122.897,474.636z M157.201,410.166c-5.715-8.19-12.802-16.601-20.725-24.525
			c-7.924-7.924-16.335-15.01-24.525-20.725l30.499-30.492l17.112,21.39c0.57,14.384,4.34,28.337,11.023,40.962L157.201,410.166z
			 M244.806,425.864c-36.525-5.226-63.994-36.595-63.994-73.894c0-11.217,2.487-22.146,7.25-32.122l18.024,12.016
			c-2.591,6.342-3.943,13.147-3.943,20.105c0,25.754,18.351,47.301,42.663,52.256V425.864z M223.475,351.971
			c0-17.619,14.344-31.997,31.997-31.997c17.634,0,31.997,14.357,31.997,31.997c0,17.643-14.354,31.997-31.997,31.997
			C237.829,383.968,223.475,369.614,223.475,351.971z M266.138,425.866v-21.64c24.313-4.955,42.663-26.501,42.663-52.256
			c0-6.959-1.352-13.764-3.942-20.106l18.024-12.016c4.762,9.976,7.25,20.906,7.25,32.122
			C330.133,388.925,303.007,420.604,266.138,425.866z M340.725,396.095c5.075-9.808,8.439-20.496,9.891-31.453l20.966-28.174
			l28.458,28.45c-8.182,5.712-16.59,12.797-24.516,20.724c-7.925,7.925-15.011,16.337-20.726,24.527L340.725,396.095z
			 M389.099,474.637L361.1,446.632c-0.196-3.972,3.247-10.997,5.094-14.482c5.35-9.87,14.015-21.023,24.416-31.425
			c17.494-17.495,31.542-24.499,31.435-24.428c3.439-1.865,10.58-5.287,14.47-5.081l28.001,28.001
			c-14.15,5.961-29.939,17.883-43.735,31.68C408.824,442.854,395.732,459.023,389.099,474.637z M450.943,461.07
			c-20.843,20.844-38.237,28.726-44.567,29.479c0.755-6.331,8.644-23.724,29.488-44.568c20.842-20.843,38.235-28.726,44.566-29.479
			C479.673,422.831,471.783,440.22,450.943,461.07z"/>
	</g>
</g>
<g>
</g>
<g>
</g>
<g>
</g>
<g>
</g>
<g>
</g>
<g>
</g>
<g>
</g>
<g>
</g>
<g>
</g>
<g>
</g>
<g>
</g>
<g>
</g>
<g>
</g>
<g>
</g>
<g>
</g>
</svg>
