<?xml version="1.0" encoding="iso-8859-1"?>
<!-- Generator: Adobe Illustrator 19.0.0, SVG Export Plug-In . SVG Version: 6.00 Build 0)  -->
<svg version="1.1" id="Layer_1" xmlns="http://www.w3.org/2000/svg" xmlns:xlink="http://www.w3.org/1999/xlink" x="0px" y="0px"
	 viewBox="0 0 265.71 265.71" style="enable-background:new 0 0 265.71 265.71;" xml:space="preserve">
<g>
	<g>
		<g>
			<g id="XMLID_29_">
				<g>
					<path style="fill:#AAE1E9;" d="M61.026,47.584c10.166,10.359,10.166,27.26,0,37.619c-10.199,10.391-26.779,10.359-36.978,0
						c-10.166-10.359-10.166-27.26,0-37.619l18.697-19.018L60.962,47.52C60.959,47.52,60.991,47.552,61.026,47.584z"/>
					<path style="fill:#AAE1E9;" d="M241.649,47.584c10.199,10.359,10.199,27.26,0,37.619c-10.199,10.391-26.747,10.359-36.946,0
						s-10.199-27.26,0-37.619l18.665-19.018l18.216,18.954C241.617,47.52,241.649,47.552,241.649,47.584z"/>
					<path style="fill:#AAE1E9;" d="M168.684,155.983c18.986,19.371,18.986,50.832,0,70.203c-18.986,19.339-49.934,19.339-68.92,0
						c-9.204-9.365-14.271-21.84-14.271-35.085c0-13.277,5.067-25.721,14.272-35.118l34.829-35.438l34.027,35.374
						C168.656,155.951,168.656,155.983,168.684,155.983z"/>
					<path style="fill:#2D213F;" d="M253.29,35.782c16.581,16.901,16.549,44.354-0.032,61.255
						c-8.274,8.435-19.178,12.668-30.082,12.668s-21.776-4.233-30.082-12.668c-16.581-16.901-16.581-44.386,0-61.287l24.534-24.983
						c1.539-1.571,3.528-2.566,5.837-2.437c2.213,0,4.297,0.898,5.837,2.502L253.29,35.782z M241.649,85.203
						c10.199-10.359,10.199-27.26,0-37.619c0-0.032-0.032-0.064-0.064-0.064l-18.216-18.954l-18.665,19.018
						c-10.199,10.359-10.199,27.26,0,37.619S231.45,95.594,241.649,85.203z"/>
					<path style="fill:#2D213F;" d="M180.329,144.213c25.368,25.849,25.368,67.926-0.032,93.775
						c-12.7,12.957-29.377,19.403-46.086,19.403c-16.677,0-33.354-6.446-46.054-19.403c-25.4-25.849-25.4-67.958,0-93.807
						l40.698-41.435c1.539-1.571,3.72-2.437,5.837-2.437c2.181,0,4.297,0.898,5.805,2.502L180.329,144.213z M168.684,226.186
						c18.986-19.371,18.986-50.832,0-70.203c-0.032,0-0.032-0.032-0.064-0.064l-34.027-35.374l-34.829,35.438
						c-9.204,9.397-14.272,21.84-14.272,35.118c0,13.245,5.067,25.721,14.272,35.085
						C118.753,245.525,149.702,245.525,168.684,226.186z"/>
					<path style="fill:#2D213F;" d="M72.664,35.782c16.549,16.901,16.549,44.354-0.032,61.255
						c-8.306,8.435-19.21,12.668-30.114,12.668c-10.872,0-21.776-4.233-30.082-12.668c-16.581-16.901-16.581-44.386,0-61.287
						L36.97,10.767c1.571-1.571,3.592-2.566,5.869-2.437c2.181,0,4.265,0.898,5.805,2.502L72.664,35.782z M61.026,85.203
						c10.166-10.359,10.166-27.26,0-37.619c-0.032-0.032-0.064-0.064-0.064-0.064L42.746,28.566L24.048,47.584
						c-10.166,10.359-10.166,27.26,0,37.619C34.244,95.562,50.824,95.594,61.026,85.203z"/>
				</g>
			</g>
		</g>
		<path style="fill:#92C1CA;" d="M24.045,85.203c10.199,10.359,26.779,10.391,36.978,0c10.166-10.359,10.166-27.26,0-37.619
			c-0.032-0.032-0.064-0.064-0.064-0.064L49.997,36.116c8.213,21.208,11.087,48.023-26.818,48.113
			C23.471,84.552,23.74,84.889,24.045,85.203z"/>
		<path style="fill:#92C1CA;" d="M205.082,85.203c10.199,10.359,26.779,10.391,36.978,0c10.166-10.359,10.166-27.26,0-37.619
			c-0.032-0.032-0.064-0.064-0.064-0.064l-10.962-11.404c8.213,21.208,11.087,48.023-26.818,48.113
			C204.504,84.552,204.774,84.889,205.082,85.203z"/>
		<path style="fill:#92C1CA;" d="M168.684,155.983c-0.032,0-0.032-0.032-0.064-0.064l-34.027-35.374l-1.171,1.19
			c16.792,24.974,63.673,105.737-42.568,91.973c2.29,4.548,5.26,8.765,8.909,12.479c18.986,19.339,49.934,19.339,68.92,0
			C187.674,206.816,187.674,175.354,168.684,155.983z"/>
	</g>
</g>
<g>
</g>
<g>
</g>
<g>
</g>
<g>
</g>
<g>
</g>
<g>
</g>
<g>
</g>
<g>
</g>
<g>
</g>
<g>
</g>
<g>
</g>
<g>
</g>
<g>
</g>
<g>
</g>
<g>
</g>
</svg>
