<?xml version="1.0" encoding="iso-8859-1"?>
<!-- Generator: Adobe Illustrator 18.1.1, SVG Export Plug-In . SVG Version: 6.00 Build 0)  -->
<svg version="1.1" id="Capa_1" xmlns="http://www.w3.org/2000/svg" xmlns:xlink="http://www.w3.org/1999/xlink" x="0px" y="0px"
	 viewBox="0 0 54.458 54.458" style="enable-background:new 0 0 54.458 54.458;" xml:space="preserve">
<g>
	<g>
		<path style="fill:#010002;" d="M35.96,36.563c-0.125-0.186-0.275-0.366-0.459-0.54c-2.415-2.285-5.596-3.802-8.708-5.078
			c1.45-3.527,2.835-7.085,4.087-10.687c0.266-0.015,0.541-0.066,0.834-0.167c5.264-1.815,10.525-3.629,15.789-5.444
			c3.582-1.235,2.043-6.949-1.572-5.703c-5.221,1.799-10.441,3.599-15.66,5.4c-1.434-1.348-3.771-1.826-5.715-1.094
			c-3.531-3.958-7.062-7.917-10.594-11.875c-2.543-2.852-6.711,1.346-4.181,4.182c3.532,3.96,7.063,7.918,10.596,11.878
			c0.213,0.238,0.436,0.422,0.666,0.566c-1.336,3.808-2.814,7.568-4.358,11.294c-0.124,0.301-0.2,0.604-0.239,0.914
			c-0.029,0.008-0.058,0.016-0.085,0.024c-3.637,1.435-7.598,3.067-10.472,5.788c-0.529,0.5-0.803,1.059-0.885,1.611
			c-0.475,0.802-0.627,1.81-0.169,2.861c1.589,3.643,3.145,7.301,4.682,10.967c0.624,1.484,1.933,2.533,3.638,2.064
			c1.405-0.387,2.69-2.148,2.065-3.639c-1.445-3.446-2.906-6.885-4.39-10.314c1.246-0.945,2.732-1.634,4.112-2.306
			c0.765-0.372,1.542-0.718,2.323-1.056c0.007,0,0.548-0.228,0.667-0.272c0.511-0.201,2.22-1.57,4.735-0.413
			c0.243,0.163,0.507,0.302,0.79,0.413c0.105,0.041,0.539,0.221,0.645,0.265c0.791,0.338,1.57,0.695,2.345,1.063
			c1.541,0.733,3.215,1.521,4.533,2.643c0.217,3.763,0.461,7.521,0.721,11.28c0.265,3.781,6.182,3.809,5.914,0
			c-0.295-4.219-0.571-8.439-0.805-12.664C36.763,37.685,36.437,37.032,35.96,36.563z"/>
		<circle style="fill:#010002;" cx="29.12" cy="7.359" r="4.879"/>
		<polygon style="fill:#010002;" points="54.458,19.313 54.056,17.585 34,23.18 		"/>
		<polygon style="fill:#010002;" points="0.973,10.818 0,12.3 17.868,22.985 		"/>
		<polygon style="fill:#010002;" points="10.139,12.906 16.987,20.273 11.541,11.817 		"/>
		<polygon style="fill:#010002;" points="42.821,29.233 43.335,27.536 33.487,25.483 		"/>
	</g>
</g>
<g>
</g>
<g>
</g>
<g>
</g>
<g>
</g>
<g>
</g>
<g>
</g>
<g>
</g>
<g>
</g>
<g>
</g>
<g>
</g>
<g>
</g>
<g>
</g>
<g>
</g>
<g>
</g>
<g>
</g>
</svg>
