<?xml version="1.0" encoding="iso-8859-1"?>
<!-- Generator: Adobe Illustrator 16.0.0, SVG Export Plug-In . SVG Version: 6.00 Build 0)  -->
<!DOCTYPE svg PUBLIC "-//W3C//DTD SVG 1.1//EN" "http://www.w3.org/Graphics/SVG/1.1/DTD/svg11.dtd">
<svg version="1.1" id="Capa_1" xmlns="http://www.w3.org/2000/svg" xmlns:xlink="http://www.w3.org/1999/xlink" x="0px" y="0px"
	 width="573.699px" height="573.699px" viewBox="0 0 573.699 573.699" style="enable-background:new 0 0 573.699 573.699;"
	 xml:space="preserve">
<g>
	<g>
		<path d="M305.949,424.6c0-1.9,0-1.9,0-3.799V229.5c0-11.5-7.6-19.1-19.099-19.1c-11.5,0-19.1,9.6-19.1,19.1v191.199
			c0,1.9,0,1.9,0,3.801c-23,7.699-38.2,28.699-38.2,53.5c0,32.5,24.9,57.4,57.4,57.4c32.499,0,57.399-24.9,57.399-57.4
			C344.25,453.301,328.949,432.301,305.949,424.6z"/>
		<path d="M344.25,401.699V57.4c0-32.5-24.9-57.4-57.4-57.4c-32.5,0-57.4,26.8-57.4,57.4v344.2c-23,17.201-38.2,45.9-38.2,76.5
			c0,53.5,42.1,95.6,95.6,95.6c53.5,0,95.599-42.1,95.599-95.6C382.449,447.5,367.15,418.9,344.25,401.699z M286.85,554.699
			c-42.1,0-76.5-34.398-76.5-76.5c0-28.699,15.3-53.5,38.2-66.898V57.4c0-21,17.2-38.2,38.2-38.2s38.199,17.2,38.199,38.2v353.799
			c23,13.4,38.201,38.201,38.201,66.9C363.35,520.199,328.949,554.699,286.85,554.699z"/>
	</g>
</g>
<g>
</g>
<g>
</g>
<g>
</g>
<g>
</g>
<g>
</g>
<g>
</g>
<g>
</g>
<g>
</g>
<g>
</g>
<g>
</g>
<g>
</g>
<g>
</g>
<g>
</g>
<g>
</g>
<g>
</g>
</svg>
